<svg xmlns="http://www.w3.org/2000/svg" xmlns:xlink="http://www.w3.org/1999/xlink" width="399" height="87" viewBox="0 0 399 87">
    <defs>
        <path id="prefix__a" d="M2.267 68.25H68V84H2.267z"/>
    </defs>
    <g fill="none" fill-rule="evenodd">
        <g transform="translate(9 3)">
            <path stroke="#FFF" stroke-width="5" d="M37.038.62l20.84 11.01c1.563.826 1.563 2.164 0 2.99l-20.84 11.01c-1.563.826-4.098.826-5.66 0L10.536 14.62c-1.563-.826-1.563-2.164 0-2.99L31.377.62c1.563-.826 4.098-.826 5.66 0zM37.038 27.487l20.84 11.01c1.563.826 1.563 2.165 0 2.99l-20.84 11.011c-1.563.826-4.098.826-5.66 0l-20.841-11.01c-1.563-.826-1.563-2.165 0-2.99l20.84-11.011c1.563-.826 4.098-.826 5.66 0z"/>
            <mask id="prefix__b" fill="#fff">
                <use xlink:href="#prefix__a"/>
            </mask>
            <path stroke="#FFF" stroke-width="5" d="M37.038 55.59l20.84 11.01c1.563.826 1.563 2.165 0 2.99l-20.84 11.011c-1.563.826-4.098.826-5.66 0l-20.841-11.01c-1.563-.826-1.563-2.165 0-2.99l20.84-11.011c1.563-.826 4.098-.826 5.66 0z" mask="url(#prefix__b)"/>
            <path stroke="#FFF" stroke-width="5" d="M61.525 3.597c4.08 2.471 6.086 3.397 6.086 9.574M6.496 76.697C2.416 74.227.41 73.3.41 67.123"/>
            <path stroke="#FFF" stroke-linecap="square" stroke-width="5" d="M9.21 67.787L9.21 13.413M59.205 67.787L59.205 13.413M34.208 52.346L34.208 27.022"/>
        </g>
        <path fill="#FFF" fill-rule="nonzero" d="M112.535 73V34.66h10.62v-7.02h-10.62V22.6c0-5.7 2.49-8.55 7.47-8.55 1.44 0 2.97.24 4.59.72V7.3c-1.98-.6-4.17-.9-6.57-.9-4.62 0-8.205 1.32-10.755 3.96-2.55 2.64-3.825 6.48-3.825 11.52v5.76h-8.73v7.02h8.73V73h9.09zm37.35.63c3.48 0 6.525-.72 9.135-2.16 2.61-1.44 4.575-3.51 5.895-6.21V73h9V27.64h-9v7.38c-1.38-2.7-3.36-4.785-5.94-6.255-2.58-1.47-5.61-2.205-9.09-2.205-3.9 0-7.38.99-10.44 2.97-3.06 1.98-5.445 4.77-7.155 8.37-1.71 3.6-2.565 7.74-2.565 12.42s.84 8.775 2.52 12.285c1.68 3.51 4.035 6.225 7.065 8.145 3.03 1.92 6.555 2.88 10.575 2.88zm2.16-7.2c-4.14 0-7.365-1.41-9.675-4.23-2.31-2.82-3.465-6.78-3.465-11.88 0-5.16 1.155-9.195 3.465-12.105 2.31-2.91 5.505-4.365 9.585-4.365 4.14 0 7.335 1.41 9.585 4.23 2.25 2.82 3.375 6.84 3.375 12.06 0 5.16-1.125 9.165-3.375 12.015-2.25 2.85-5.415 4.275-9.495 4.275zm44.19 6.57V47.17c0-4.02 1.155-7.23 3.465-9.63 2.31-2.4 5.385-3.6 9.225-3.6 3.36 0 5.805.9 7.335 2.7 1.53 1.8 2.295 4.68 2.295 8.64V73h9.09V44.74c0-12.12-5.43-18.18-16.29-18.18-3.48 0-6.585.765-9.315 2.295-2.73 1.53-4.815 3.735-6.255 6.615l-.81-7.83h-8.46c.48 3.78.72 8.04.72 12.78V73h9zm61.83.63c2.52 0 4.77-.33 6.75-.99v-7.38c-1.62.48-3.21.72-4.77.72-2.4 0-4.275-.645-5.625-1.935-1.35-1.29-2.025-3.495-2.025-6.615V34.66h12.51v-7.02h-12.51V13.15l-9.09 3.15v11.34h-8.82v7.02h8.82v23.49c0 5.04 1.29 8.88 3.87 11.52 2.58 2.64 6.21 3.96 10.89 3.96zm34.74 0c4.38 0 8.25-.96 11.61-2.88 3.36-1.92 5.955-4.65 7.785-8.19 1.83-3.54 2.745-7.68 2.745-12.42s-.915-8.895-2.745-12.465c-1.83-3.57-4.425-6.315-7.785-8.235-3.36-1.92-7.23-2.88-11.61-2.88-4.44 0-8.34.96-11.7 2.88-3.36 1.92-5.955 4.665-7.785 8.235-1.83 3.57-2.745 7.725-2.745 12.465s.915 8.88 2.745 12.42c1.83 3.54 4.425 6.27 7.785 8.19 3.36 1.92 7.26 2.88 11.7 2.88zm-.09-7.2c-4.14 0-7.335-1.38-9.585-4.14-2.25-2.76-3.375-6.81-3.375-12.15 0-5.22 1.14-9.24 3.42-12.06 2.28-2.82 5.49-4.23 9.63-4.23 4.08 0 7.245 1.41 9.495 4.23 2.25 2.82 3.375 6.84 3.375 12.06 0 5.34-1.11 9.39-3.33 12.15-2.22 2.76-5.43 4.14-9.63 4.14zm41.85 6.57V47.35c0-4.14 1.02-7.41 3.06-9.81 2.04-2.4 4.8-3.6 8.28-3.6 3 0 5.175.9 6.525 2.7 1.35 1.8 2.025 4.65 2.025 8.55V73h9.09V47.35c0-4.14 1.005-7.41 3.015-9.81 2.01-2.4 4.755-3.6 8.235-3.6 3 0 5.175.9 6.525 2.7 1.35 1.8 2.025 4.65 2.025 8.55V73h9.09V44.74c0-12.12-5.04-18.18-15.12-18.18-3.36 0-6.375.78-9.045 2.34-2.67 1.56-4.695 3.69-6.075 6.39-2.16-5.82-6.75-8.73-13.77-8.73-3.3 0-6.18.75-8.64 2.25-2.46 1.5-4.35 3.63-5.67 6.39l-.81-7.56h-8.46c.48 3.78.72 8.04.72 12.78V73h9z"/>
    </g>
</svg>
