<?xml version="1.0" encoding="UTF-8"?>
<svg width="154px" height="40px" viewBox="0 0 154 40" version="1.1" xmlns="http://www.w3.org/2000/svg" xmlns:xlink="http://www.w3.org/1999/xlink">
    <!-- Generator: Sketch 63.1 (92452) - https://sketch.com -->
    <title>Fantom_logo</title>
    <desc>Created with Sketch.</desc>
    <g id="Desktop" stroke="none" stroke-width="1" fill="none" fill-rule="evenodd">
        <g id="Desktop-5" transform="translate(-55.000000, -30.000000)" fill="#FFFFFF" fill-rule="nonzero">
            <g id="Fantom_logo" transform="translate(55.000000, 30.000000)">
                <path d="M14.0429044,0.383168891 C15.0146986,-0.127722964 16.4933749,-0.127722964 17.4651691,0.383168891 L17.4651691,0.383168891 L27.3814425,5.5963541 C27.9666949,5.90403313 28.2881299,6.36248957 28.3457473,6.83578988 L28.355185,6.83583635 L28.355185,33.0398757 C28.3424656,33.555961 28.018007,34.0689911 27.3814425,34.4036459 L27.3814425,34.4036459 L17.4651691,39.6168311 C16.4933749,40.127723 15.0146986,40.127723 14.0429044,39.6168311 L14.0429044,39.6168311 L4.12663097,34.4036459 C3.49290182,34.0704817 3.18876525,33.5540326 3.1736996,33.0398757 C3.17238769,32.995103 3.17209224,32.9570058 3.173034,32.9245842 L3.1736996,6.83583635 C3.22234854,6.35706669 3.52918747,5.91044222 4.12663097,5.5963541 L4.12663097,5.5963541 Z M26.794,21.455 L17.4651691,26.3594515 C16.4933749,26.8703434 15.0146986,26.8703434 14.0429044,26.3594515 L14.0429044,26.3594515 L4.734,21.466 L4.734,32.988 L14.0429044,37.8560331 C14.5334834,38.1169044 15.0414407,38.3718035 15.5406846,38.4327189 L15.7540367,38.4464008 C16.3099067,38.4482542 16.8495538,38.1673006 17.3968165,37.9013465 L17.3968165,37.9013465 L26.794,32.945 L26.794,21.455 Z M1.56083587,32.4702227 C1.56083587,33.4742157 1.67806506,34.1340978 1.91082325,34.5989832 C2.103745,34.9843036 2.39321017,35.2787724 2.92175454,35.6370774 L2.95192844,35.657428 C3.06792,35.7352644 3.19569839,35.8168167 3.35123666,35.9126442 L3.53465738,36.0244617 L4.09789693,36.3627841 L3.29005952,37.6921097 L2.65965111,37.3131383 L2.5536897,37.2483869 C2.37141092,37.1363967 2.22033441,37.0401823 2.07941432,36.9456176 C0.573048733,35.9347679 0.0112530332,34.8326777 0.000167755791,32.5400614 L1.77599652e-14,32.4702227 L1.56083587,32.4702227 Z M14.9716862,14.4320913 C14.9001304,14.4566277 14.8330568,14.484982 14.7718603,14.5171542 L14.7718603,14.5171542 L4.85558686,19.7303395 L4.85558686,19.7303395 L4.8258105,19.7465758 L4.81741586,19.7514241 L4.83298498,19.7602962 L4.85558686,19.7725088 L14.7718603,24.985694 C14.8330568,25.0178663 14.9001304,25.0462206 14.9716862,25.070757 Z M16.5363873,14.4320913 L16.5363873,25.070757 C16.6079431,25.0462206 16.6750166,25.0178663 16.7362132,24.985694 L16.7362132,24.985694 L26.6524866,19.7725088 L26.6524866,19.7725088 L26.682263,19.7562725 L26.6906576,19.7514241 L26.6750885,19.7425521 L26.6524866,19.7303395 L16.7362132,14.5171542 C16.6750166,14.484982 16.6079431,14.4566277 16.5363873,14.4320913 Z M26.794,8.695 L17.899,13.371 L26.794,18.047 L26.794,8.695 Z M4.734,8.706 L4.734,18.036 L13.608,13.371 L4.734,8.706 Z M16.7362132,1.75692638 C16.220534,1.48582343 15.2875394,1.48582343 14.7718603,1.75692638 L14.7718603,1.75692638 L4.85558686,6.97011159 L4.85558686,6.97011159 L4.8258105,6.98634794 L4.81741586,6.99119627 L4.83298498,7.00006833 L4.85558686,7.01228095 L14.7718603,12.2254662 C15.2875394,12.4965691 16.220534,12.4965691 16.7362132,12.2254662 L16.7362132,12.2254662 L26.6524866,7.01228095 L26.6524866,7.01228095 L26.682263,6.9960446 L26.6906576,6.99119627 L26.6750885,6.98232421 L26.6524866,6.97011159 Z M28.2596362,2.32860494 L28.8900446,2.70757631 L28.996006,2.77232778 C29.1782848,2.884318 29.3293613,2.98053239 29.4702814,3.0750971 C30.976647,4.08594673 31.5384427,5.188037 31.549528,7.48065321 L31.5496957,7.55049197 L29.9888599,7.55049197 C29.9888599,6.54649891 29.8716307,5.88661681 29.6388725,5.42173149 C29.4459507,5.03641105 29.1564856,4.74194226 28.6279412,4.3836373 L28.5977673,4.36328667 C28.4817757,4.28545031 28.3539973,4.20389792 28.1984591,4.10807049 L28.0150384,3.99625294 L27.4517988,3.65793054 L28.2596362,2.32860494 Z" id="Combined-Shape"/>
                <path d="M47.4058287,31.9473728 L47.4058287,17.333919 L51.4567505,17.333919 L51.4567505,14.6582162 L47.4058287,14.6582162 L47.4058287,12.7371988 C47.4058287,10.5646196 48.3556211,9.47832999 50.2552059,9.47832999 C50.8044835,9.47832999 51.3880909,9.56980701 52.0060281,9.75276104 L52.0060281,9.75276104 L52.0060281,6.90553882 C51.2507715,6.67684627 50.4154119,6.5625 49.4999493,6.5625 C47.7376839,6.5625 46.3702117,7.06562361 45.3975328,8.07187082 C44.4248538,9.07811803 43.9385143,10.5417503 43.9385143,12.4627677 L43.9385143,12.4627677 L43.9385143,14.6582162 L40.6085193,14.6582162 L40.6085193,17.333919 L43.9385143,17.333919 L43.9385143,31.9473728 L47.4058287,31.9473728 Z M61.4810655,32.1875 C62.8084862,32.1875 63.9699793,31.9130689 64.9655449,31.3642068 C65.9611104,30.8153447 66.7106454,30.0263554 67.2141498,28.997239 L67.2141498,28.997239 L67.2141498,31.9473728 L70.6471344,31.9473728 L70.6471344,14.6582162 L67.2141498,14.6582162 L67.2141498,17.4711345 C66.6877588,16.4420181 65.9325022,15.6473115 64.94838,15.0870147 C63.9642577,14.526718 62.8084862,14.2465696 61.4810655,14.2465696 C59.9934389,14.2465696 58.6660182,14.6239123 57.4988034,15.3785977 C56.3315887,16.1332831 55.4218477,17.1967035 54.7695807,18.5688588 C54.1173136,19.9410141 53.7911801,21.5189926 53.7911801,23.3027945 C53.7911801,25.0865964 54.111592,26.647423 54.7524157,27.9852744 C55.3932395,29.3231258 56.2915372,30.3579596 57.4473086,31.0897758 C58.6030801,31.8215919 59.9476657,32.1875 61.4810655,32.1875 Z M62.3049818,29.4431894 C60.7258089,29.4431894 59.4956561,28.9057619 58.6145234,27.830907 C57.7333907,26.756052 57.2928243,25.2466812 57.2928243,23.3027945 C57.2928243,21.3360386 57.7333907,19.7980812 58.6145234,18.6889224 C59.4956561,17.5797635 60.7143656,17.0251841 62.270652,17.0251841 C63.8498249,17.0251841 65.0685344,17.5626116 65.9267806,18.6374665 C66.7850267,19.7123215 67.2141498,21.2445616 67.2141498,23.2341867 C67.2141498,25.2009427 66.7850267,26.7274654 65.9267806,27.813755 C65.0685344,28.9000446 63.8612682,29.4431894 62.3049818,29.4431894 Z M79.1609361,31.9473728 L79.1609361,22.1021586 C79.1609361,20.5699186 79.6015025,19.3464134 80.4826352,18.4316432 C81.3637679,17.516873 82.5367043,17.059488 84.0014444,17.059488 C85.283092,17.059488 86.2157194,17.4025268 86.7993268,18.0886044 C87.3829342,18.7746821 87.6747379,19.8724063 87.6747379,21.3817771 L87.6747379,21.3817771 L87.6747379,31.9473728 L91.1420523,31.9473728 L91.1420523,21.1759538 C91.1420523,16.5563643 89.0708183,14.2465696 84.9283502,14.2465696 C83.6009295,14.2465696 82.4165498,14.5381526 81.3752112,15.1213186 C80.3338725,15.7044846 79.5385644,16.5449297 78.9892869,17.6426539 L78.9892869,17.6426539 L78.6803183,14.6582162 L75.4533128,14.6582162 C75.6364053,16.0989793 75.7279515,17.7226963 75.7279515,19.5293675 L75.7279515,19.5293675 L75.7279515,31.9473728 L79.1609361,31.9473728 Z M102.74554,32.1875 C103.706776,32.1875 104.565022,32.0617191 105.320279,31.8101573 L105.320279,31.8101573 L105.320279,28.997239 C104.702341,29.180193 104.095847,29.27167 103.500797,29.27167 C102.585334,29.27167 101.870129,29.0258255 101.355181,28.5341365 C100.840234,28.0424476 100.58276,27.2020025 100.58276,26.0128012 L100.58276,26.0128012 L100.58276,17.333919 L105.354608,17.333919 L105.354608,14.6582162 L100.58276,14.6582162 L100.58276,9.13529116 L97.1154455,10.335927 L97.1154455,14.6582162 L93.7511206,14.6582162 L93.7511206,17.333919 L97.1154455,17.333919 L97.1154455,26.2872323 C97.1154455,28.2082497 97.6075066,29.671882 98.5916289,30.6781292 C99.5757511,31.6843764 100.960388,32.1875 102.74554,32.1875 Z M115.996861,32.1875 C117.66758,32.1875 119.143763,31.8215919 120.425411,31.0897758 C121.707058,30.3579596 122.696902,29.3174085 123.394942,27.9681225 C124.092983,26.6188365 124.442003,25.0408579 124.442003,23.2341867 C124.442003,21.4275156 124.092983,19.8438197 123.394942,18.4830991 C122.696902,17.1223784 121.707058,16.07611 120.425411,15.3442938 C119.143763,14.6124777 117.66758,14.2465696 115.996861,14.2465696 C114.303255,14.2465696 112.815628,14.6124777 111.533981,15.3442938 C110.252333,16.07611 109.262489,17.1223784 108.564449,18.4830991 C107.866409,19.8438197 107.517389,21.4275156 107.517389,23.2341867 C107.517389,25.0408579 107.866409,26.6188365 108.564449,27.9681225 C109.262489,29.3174085 110.252333,30.3579596 111.533981,31.0897758 C112.815628,31.8215919 114.303255,32.1875 115.996861,32.1875 Z M115.962531,29.4431894 C114.383358,29.4431894 113.164648,28.9171966 112.306402,27.8652108 C111.448156,26.8132251 111.019033,25.2695504 111.019033,23.2341867 C111.019033,21.2445616 111.453878,19.7123215 112.323567,18.6374665 C113.193257,17.5626116 114.417688,17.0251841 115.996861,17.0251841 C117.553147,17.0251841 118.760413,17.5626116 119.618659,18.6374665 C120.476906,19.7123215 120.906029,21.2445616 120.906029,23.2341867 C120.906029,25.2695504 120.482627,26.8132251 119.635824,27.8652108 C118.789021,28.9171966 117.56459,29.4431894 115.962531,29.4431894 Z M131.925909,31.9473728 L131.925909,22.1707664 C131.925909,20.5927878 132.314981,19.3464134 133.093124,18.4316432 C133.871267,17.516873 134.924049,17.059488 136.25147,17.059488 C137.395798,17.059488 138.225436,17.4025268 138.740384,18.0886044 C139.255331,18.7746821 139.512805,19.8609717 139.512805,21.3474732 L139.512805,21.3474732 L139.512805,31.9473728 L142.980119,31.9473728 L142.980119,22.1707664 C142.980119,20.5927878 143.363469,19.3464134 144.130169,18.4316432 C144.896869,17.516873 145.94393,17.059488 147.27135,17.059488 C148.415678,17.059488 149.245316,17.4025268 149.760264,18.0886044 C150.275212,18.7746821 150.532686,19.8609717 150.532686,21.3474732 L150.532686,21.3474732 L150.532686,31.9473728 L154,31.9473728 L154,21.1759538 C154,16.5563643 152.077529,14.2465696 148.232586,14.2465696 C146.950938,14.2465696 145.800888,14.5438699 144.782436,15.1384705 C143.763984,15.7330712 142.991563,16.5449297 142.465172,17.5740462 C141.641256,15.3557285 139.890433,14.2465696 137.212705,14.2465696 C135.953944,14.2465696 134.855389,14.5324353 133.91704,15.1041667 C132.978691,15.675898 132.257764,16.4877566 131.75426,17.5397423 L131.75426,17.5397423 L131.445291,14.6582162 L128.218286,14.6582162 C128.401378,16.0989793 128.492925,17.7226963 128.492925,19.5293675 L128.492925,19.5293675 L128.492925,31.9473728 L131.925909,31.9473728 Z" id="fantom"/>
            </g>
        </g>
    </g>
</svg>