<svg xmlns="http://www.w3.org/2000/svg" width="48" height="48.079" viewBox="0 0 48 48.079">
  <g id="Page-1" transform="translate(5 0.079)">
    <g id="favicon-fantom" transform="translate(-5)">
      <g id="Group_1" data-name="Group 1">
        <rect id="Rectangle" width="48" height="48" fill="none"/>
        <g id="fantom-new-logo-white" transform="translate(6 1)">
          <g id="rounded-copy">
            <path id="Rectangle-2" data-name="Rectangle" d="M19.475.347,31.147,6.507c.875.462.875,1.211,0,1.673L19.475,14.341a3.8,3.8,0,0,1-3.17,0L4.632,8.18c-.875-.462-.875-1.211,0-1.673L16.3.347A3.8,3.8,0,0,1,19.475.347Z" fill="none" stroke="#426ed5" stroke-width="2" fill-rule="evenodd"/>
            <path id="Rectangle-Copy" d="M19.475,15.38,31.147,21.54c.875.462.875,1.211,0,1.673L19.475,29.374a3.8,3.8,0,0,1-3.17,0L4.632,23.213c-.875-.462-.875-1.211,0-1.673L16.3,15.38A3.8,3.8,0,0,1,19.475,15.38Z" fill="none" stroke="#426ed5" stroke-width="2" fill-rule="evenodd"/>
            <path id="Rectangle-Copy-2" d="M19.475,31.1l11.673,6.161c.875.462.875,1.211,0,1.673L19.475,45.1a3.8,3.8,0,0,1-3.17,0L4.632,38.938c-.875-.462-.875-1.211,0-1.673L16.3,31.1A3.8,3.8,0,0,1,19.475,31.1Z" fill="none" stroke="#426ed5" stroke-width="2" fill-rule="evenodd"/>
            <path id="Path-11" d="M31.286,3.283c2.285,1.382,3.409,1.9,3.409,5.357" fill="none" stroke="#426ed5" stroke-width="2" fill-rule="evenodd"/>
            <path id="Path-11-Copy" d="M.864,36.287c2.285,1.382,3.409,1.9,3.409,5.357" transform="translate(5.137 77.93) rotate(180)" fill="none" stroke="#426ed5" stroke-width="2" fill-rule="evenodd"/>
            <line id="Line-2" y1="30.423" transform="translate(3.889 7.505)" fill="none" stroke="#426ed5" stroke-linecap="square" stroke-width="2"/>
            <line id="Line-2-Copy" y1="30.423" transform="translate(31.89 7.505)" fill="none" stroke="#426ed5" stroke-linecap="square" stroke-width="2"/>
            <line id="Line-2-Copy-2" y1="14.169" transform="translate(17.89 15.119)" fill="none" stroke="#426ed5" stroke-linecap="square" stroke-width="2"/>
          </g>
        </g>
      </g>
    </g>
  </g>
</svg>
